<?xml version="1.0" encoding="UTF-8" standalone="no"?>
<!-- Created with Inkscape (http://www.inkscape.org/) -->

<svg
   xmlns:dc="http://purl.org/dc/elements/1.1/"
   xmlns:cc="http://creativecommons.org/ns#"
   xmlns:rdf="http://www.w3.org/1999/02/22-rdf-syntax-ns#"
   xmlns:svg="http://www.w3.org/2000/svg"
   xmlns="http://www.w3.org/2000/svg"
   xmlns:sodipodi="http://sodipodi.sourceforge.net/DTD/sodipodi-0.dtd"
   xmlns:inkscape="http://www.inkscape.org/namespaces/inkscape"
   width="219.68504"
   height="311.81104"
   id="svg2"
   version="1.1"
   inkscape:version="0.48.4 r9939"
   sodipodi:docname="ned.svg">
  <defs
     id="defs4" />
  <sodipodi:namedview
     id="base"
     pagecolor="#ffffff"
     bordercolor="#666666"
     borderopacity="1.0"
     inkscape:pageopacity="0.0"
     inkscape:pageshadow="2"
     inkscape:zoom="4"
     inkscape:cx="117.96297"
     inkscape:cy="159.30542"
     inkscape:document-units="px"
     inkscape:current-layer="layer1"
     showgrid="false"
     inkscape:window-width="1122"
     inkscape:window-height="1028"
     inkscape:window-x="408"
     inkscape:window-y="24"
     inkscape:window-maximized="0" />
  <metadata
     id="metadata7">
    <rdf:RDF>
      <cc:Work
         rdf:about="">
        <dc:format>image/svg+xml</dc:format>
        <dc:type
           rdf:resource="http://purl.org/dc/dcmitype/StillImage" />
        <dc:title></dc:title>
      </cc:Work>
    </rdf:RDF>
  </metadata>
  <g
     inkscape:label="Layer 1"
     inkscape:groupmode="layer"
     id="layer1"
     transform="translate(0,-740.55116)">
    <path
       style="fill:#000000;stroke:#000000;stroke-width:1px;stroke-linecap:butt;stroke-linejoin:miter;stroke-opacity:1;fill-opacity:1"
       d="m 54.198178,102.22188 52.140022,28.47119 52.14002,11.6629 -7.88961,15.43619 -20.23856,-17.15132 -25.72699,-6.5175 -52.140014,-29.8433 z"
       id="path3824"
       inkscape:connector-curvature="0"
       transform="translate(0,740.55116)" />
    <path
       style="fill:#000000;stroke:#000000;stroke-width:1px;stroke-linecap:butt;stroke-linejoin:miter;stroke-opacity:1;fill-opacity:1"
       d="M 89.53125 50.78125 L 91.9375 92.28125 L 106 93.3125 L 106 101.875 L 88.84375 102.90625 L 85.0625 105.3125 L 87.46875 131.03125 L 90.5625 154.375 L 81.96875 169.46875 L 80.96875 193.8125 L 91.59375 167.75 L 126.21875 168.4375 L 145.09375 187.96875 L 131.375 139.625 L 141.65625 137.21875 L 136.1875 103.59375 L 120.40625 103.59375 L 120.40625 94.34375 L 132.75 95.03125 L 134.46875 53.84375 L 89.53125 50.78125 z M 96.375 60.03125 L 127.25 62.4375 L 126.21875 71.34375 L 97.0625 68.59375 L 96.375 60.03125 z "
       transform="translate(0,740.55116)"
       id="path3050" />
  </g>
</svg>
